<svg xmlns="http://www.w3.org/2000/svg" xmlns:xlink="http://www.w3.org/1999/xlink" width="1920" zoomAndPan="magnify" viewBox="0 0 1440 809.999993" height="1080" preserveAspectRatio="xMidYMid meet" version="1.0"><defs><clipPath id="5a4c5d1da3"><path d="M 753 290 L 838.800781 290 L 838.800781 366.894531 L 753 366.894531 Z M 753 290 " clip-rule="nonzero"/></clipPath><clipPath id="5b4df65d65"><path d="M 600.300781 370 L 757 370 L 757 519.894531 L 600.300781 519.894531 Z M 600.300781 370 " clip-rule="nonzero"/></clipPath><clipPath id="97daceb253"><path d="M 672 289.644531 L 830.550781 289.644531 L 830.550781 419 L 672 419 Z M 672 289.644531 " clip-rule="nonzero"/></clipPath></defs><rect x="-144" width="1728" fill="#ffffff" y="-80.999999" height="971.999992" fill-opacity="1"/><g clip-path="url(#5a4c5d1da3)"><path fill="#0b8fac" d="M 834.351562 291.574219 C 833.519531 289.71875 831.140625 289.644531 830.144531 291.398438 C 825.539062 299.402344 817.296875 304.394531 807.878906 304.394531 L 795.992188 304.394531 C 780.246094 304.394531 767.472656 317.171875 767.472656 332.917969 C 767.472656 333.957031 767.589844 334.953125 767.695312 335.960938 C 777.171875 329.171875 790.855469 323.410156 810.253906 323.410156 C 811.5625 323.410156 812.632812 324.480469 812.632812 325.785156 C 812.632812 327.09375 811.5625 328.164062 810.253906 328.164062 C 772.910156 328.164062 757.074219 351.054688 753.566406 359.65625 C 752.585938 362.078125 753.746094 364.839844 756.167969 365.835938 C 758.605469 366.847656 761.367188 365.671875 762.378906 363.265625 C 762.601562 362.730469 765.480469 356.148438 773.058594 349.808594 C 777.871094 356.328125 787.023438 362.554688 799.039062 361.273438 C 822.363281 359.582031 838.777344 338.664062 838.777344 313.054688 C 838.777344 305.597656 837.171875 297.875 834.351562 291.574219 Z M 834.351562 291.574219 " fill-opacity="1" fill-rule="nonzero"/></g><g clip-path="url(#5b4df65d65)"><path fill="#7bc1b7" d="M 747.964844 466.511719 C 744.652344 463.195312 741.578125 459.636719 738.800781 455.882812 L 738.800781 477.820312 C 738.800781 478.601562 738.800781 479.382812 738.753906 480.113281 C 738.703125 480.84375 738.605469 481.625 738.460938 482.40625 C 738.3125 483.183594 738.167969 483.914062 737.921875 484.648438 C 737.726562 485.378906 737.484375 486.109375 737.191406 486.839844 C 736.898438 487.570312 736.605469 488.253906 736.21875 488.9375 C 735.875 489.621094 735.484375 490.300781 735.046875 490.9375 C 734.609375 491.570312 734.167969 492.203125 733.683594 492.789062 C 733.195312 493.375 732.707031 493.957031 732.121094 494.496094 C 731.585938 495.03125 731 495.566406 730.414062 496.054688 C 729.832031 496.542969 729.195312 497.03125 728.5625 497.46875 C 727.929688 497.90625 727.246094 498.296875 726.566406 498.6875 C 725.882812 499.078125 725.199219 499.371094 724.46875 499.710938 C 723.738281 500.003906 723.054688 500.296875 722.273438 500.492188 C 721.542969 500.734375 720.8125 500.929688 720.03125 501.074219 C 719.25 501.222656 718.519531 501.320312 717.742188 501.417969 C 716.960938 501.515625 716.179688 501.515625 715.449219 501.515625 C 714.667969 501.515625 713.890625 501.464844 713.15625 501.417969 C 712.378906 501.320312 711.648438 501.222656 710.867188 501.074219 C 710.085938 500.929688 709.355469 500.734375 708.625 500.492188 C 707.894531 500.246094 707.160156 500.003906 706.429688 499.710938 C 705.699219 499.417969 705.015625 499.078125 704.335938 498.6875 C 703.652344 498.296875 703.019531 497.90625 702.335938 497.46875 C 701.703125 497.03125 701.066406 496.589844 700.484375 496.054688 C 699.898438 495.566406 699.3125 495.03125 698.777344 494.496094 C 698.242188 493.957031 697.703125 493.375 697.214844 492.789062 C 696.730469 492.203125 696.289062 491.570312 695.851562 490.9375 C 695.414062 490.300781 695.023438 489.621094 694.679688 488.9375 C 694.339844 488.253906 694 487.570312 693.707031 486.839844 C 693.414062 486.109375 693.171875 485.378906 692.976562 484.648438 C 692.78125 483.914062 692.585938 483.136719 692.4375 482.40625 C 692.292969 481.625 692.195312 480.894531 692.144531 480.113281 C 692.097656 479.332031 692.050781 478.554688 692.097656 477.820312 L 692.097656 427.363281 L 641.785156 427.363281 C 640.566406 427.363281 639.347656 427.265625 638.128906 427.074219 C 636.910156 426.878906 635.742188 426.585938 634.570312 426.195312 C 633.402344 425.804688 632.28125 425.367188 631.207031 424.78125 C 630.136719 424.246094 629.0625 423.5625 628.089844 422.878906 C 627.113281 422.148438 626.1875 421.367188 625.308594 420.492188 C 624.429688 419.613281 623.652344 418.6875 622.921875 417.710938 C 622.1875 416.738281 621.554688 415.664062 621.019531 414.59375 C 620.484375 413.519531 619.996094 412.351562 619.605469 411.226562 C 619.214844 410.058594 618.972656 408.886719 618.777344 407.667969 C 618.582031 406.449219 618.484375 405.230469 618.484375 404.011719 C 618.484375 402.792969 618.582031 401.574219 618.777344 400.355469 C 618.972656 399.136719 619.265625 397.96875 619.652344 396.796875 C 620.042969 395.628906 620.53125 394.507812 621.066406 393.433594 C 621.605469 392.363281 622.285156 391.289062 622.96875 390.3125 C 623.699219 389.339844 624.480469 388.414062 625.359375 387.535156 C 626.234375 386.65625 627.160156 385.878906 628.136719 385.195312 L 629.890625 383.929688 C 627.601562 382.027344 625.503906 379.980469 623.554688 377.738281 C 621.457031 375.398438 619.554688 372.910156 617.753906 370.328125 L 616.875 370.960938 C 615.996094 371.59375 615.167969 372.277344 614.390625 373.007812 C 613.558594 373.738281 612.78125 374.46875 612.050781 375.25 C 611.316406 376.03125 610.585938 376.808594 609.902344 377.640625 C 609.222656 378.46875 608.539062 379.296875 607.953125 380.222656 C 607.320312 381.101562 606.734375 382.027344 606.199219 382.953125 C 605.664062 383.878906 605.125 384.804688 604.640625 385.78125 C 604.152344 386.753906 603.710938 387.730469 603.324219 388.707031 C 602.933594 389.679688 602.542969 390.703125 602.25 391.726562 C 601.910156 392.75 601.664062 393.777344 601.421875 394.847656 C 601.175781 395.921875 600.984375 396.945312 600.835938 398.015625 C 600.691406 399.089844 600.542969 400.160156 600.496094 401.234375 C 600.445312 402.355469 600.445312 403.429688 600.445312 404.5 C 600.445312 405.574219 600.496094 406.644531 600.59375 407.71875 C 600.691406 408.789062 600.835938 409.863281 600.984375 410.9375 C 601.175781 412.007812 601.371094 413.03125 601.617188 414.105469 C 601.859375 415.128906 602.203125 416.199219 602.492188 417.226562 C 602.835938 418.25 603.226562 419.273438 603.613281 420.246094 C 604.054688 421.222656 604.492188 422.199219 604.980469 423.171875 C 605.46875 424.148438 606.003906 425.074219 606.589844 426 C 607.175781 426.925781 607.757812 427.804688 608.394531 428.679688 C 609.027344 429.558594 609.707031 430.386719 610.390625 431.214844 C 611.074219 432.046875 611.855469 432.824219 612.585938 433.554688 C 613.363281 434.335938 614.144531 435.019531 614.972656 435.75 C 615.804688 436.433594 616.632812 437.113281 617.507812 437.75 C 618.386719 438.382812 619.265625 438.96875 620.191406 439.550781 C 621.117188 440.136719 622.042969 440.625 623.019531 441.113281 C 623.992188 441.601562 624.96875 442.039062 625.941406 442.476562 C 626.917969 442.867188 627.941406 443.257812 628.964844 443.597656 C 629.988281 443.941406 631.011719 444.234375 632.085938 444.476562 C 633.109375 444.71875 634.183594 444.914062 635.253906 445.109375 C 636.328125 445.257812 637.398438 445.402344 638.472656 445.5 C 639.542969 445.597656 640.617188 445.644531 641.6875 445.644531 L 674.011719 445.644531 L 674.011719 477.917969 C 674.011719 478.601562 674.011719 479.285156 674.011719 479.96875 C 674.011719 480.648438 674.058594 481.332031 674.109375 482.015625 C 674.15625 482.695312 674.253906 483.378906 674.351562 484.0625 C 674.449219 484.746094 674.546875 485.425781 674.695312 486.109375 C 674.839844 486.792969 674.9375 487.472656 675.132812 488.109375 C 675.277344 488.789062 675.472656 489.425781 675.667969 490.105469 C 675.863281 490.742188 676.058594 491.421875 676.300781 492.058594 C 676.546875 492.691406 676.742188 493.324219 677.035156 493.957031 C 677.277344 494.59375 677.570312 495.226562 677.863281 495.859375 C 678.15625 496.492188 678.449219 497.078125 678.738281 497.710938 C 679.082031 498.296875 679.375 498.929688 679.714844 499.515625 C 680.054688 500.101562 680.398438 500.6875 680.789062 501.269531 C 681.175781 501.855469 681.566406 502.390625 681.957031 502.976562 C 682.347656 503.511719 682.785156 504.050781 683.226562 504.585938 C 683.664062 505.121094 684.101562 505.660156 684.542969 506.144531 C 684.980469 506.632812 685.46875 507.171875 685.957031 507.65625 C 686.441406 508.144531 686.929688 508.632812 687.417969 509.070312 C 687.90625 509.511719 688.441406 509.996094 688.976562 510.4375 C 689.515625 510.875 690.050781 511.3125 690.585938 511.703125 C 691.121094 512.09375 691.707031 512.53125 692.242188 512.875 C 692.828125 513.265625 693.367188 513.605469 693.949219 513.996094 C 694.535156 514.335938 695.121094 514.675781 695.753906 515.019531 C 696.339844 515.359375 696.972656 515.652344 697.605469 515.945312 C 698.242188 516.238281 698.824219 516.53125 699.460938 516.773438 C 700.09375 517.015625 700.726562 517.308594 701.359375 517.503906 C 701.992188 517.75 702.675781 517.945312 703.308594 518.140625 C 703.945312 518.332031 704.625 518.527344 705.308594 518.675781 C 705.992188 518.820312 706.625 519.015625 707.308594 519.113281 C 707.992188 519.210938 708.671875 519.359375 709.308594 519.457031 C 709.988281 519.550781 710.671875 519.648438 711.355469 519.699219 C 712.035156 519.746094 712.71875 519.796875 713.402344 519.84375 C 714.085938 519.894531 714.765625 519.894531 715.449219 519.894531 C 716.132812 519.894531 716.8125 519.894531 717.496094 519.84375 C 718.179688 519.796875 718.863281 519.746094 719.542969 519.699219 C 720.226562 519.648438 720.910156 519.550781 721.59375 519.457031 C 722.273438 519.359375 722.957031 519.261719 723.589844 519.113281 C 724.222656 518.96875 724.90625 518.820312 725.589844 518.675781 C 726.273438 518.527344 726.90625 518.332031 727.589844 518.140625 C 728.222656 517.945312 728.90625 517.699219 729.539062 517.503906 C 730.171875 517.261719 730.804688 517.015625 731.441406 516.773438 C 732.074219 516.53125 732.707031 516.238281 733.292969 515.945312 C 733.925781 515.652344 734.511719 515.359375 735.144531 515.019531 C 735.730469 514.675781 736.363281 514.335938 736.949219 513.996094 C 737.535156 513.652344 738.117188 513.265625 738.65625 512.875 C 739.238281 512.484375 739.777344 512.09375 740.3125 511.703125 C 740.847656 511.3125 741.386719 510.875 741.921875 510.4375 C 742.457031 509.996094 742.945312 509.558594 743.480469 509.070312 C 743.96875 508.632812 744.457031 508.144531 744.945312 507.65625 C 745.429688 507.171875 745.871094 506.683594 746.355469 506.144531 C 746.796875 505.660156 747.234375 505.121094 747.671875 504.585938 C 748.113281 504.050781 748.503906 503.511719 748.941406 502.976562 C 749.332031 502.441406 749.722656 501.855469 750.109375 501.269531 C 750.5 500.6875 750.84375 500.101562 751.183594 499.515625 C 751.523438 498.929688 751.867188 498.347656 752.160156 497.710938 C 752.453125 497.128906 752.792969 496.492188 753.035156 495.859375 C 753.328125 495.226562 753.574219 494.59375 753.863281 493.957031 C 754.109375 493.324219 754.351562 492.691406 754.597656 492.058594 C 754.839844 491.421875 755.035156 490.742188 755.230469 490.105469 C 755.425781 489.472656 755.621094 488.789062 755.765625 488.109375 C 755.914062 487.425781 756.058594 486.792969 756.203125 486.109375 C 756.351562 485.425781 756.449219 484.746094 756.546875 484.0625 C 756.644531 483.378906 756.691406 482.695312 756.789062 482.015625 C 756.839844 481.332031 756.886719 480.648438 756.886719 479.96875 C 756.886719 479.285156 756.9375 478.601562 756.886719 477.917969 L 756.886719 474.214844 C 753.71875 471.777344 750.695312 469.289062 747.964844 466.511719 Z M 747.964844 466.511719 " fill-opacity="1" fill-rule="nonzero"/></g><g clip-path="url(#97daceb253)"><path fill="#0b8fac" d="M 678.007812 370.667969 C 676.644531 373.886719 674.742188 376.761719 672.304688 379.246094 L 672.890625 380.613281 L 672.890625 380.757812 L 692.195312 380.757812 L 692.195312 330.398438 C 692.195312 329.667969 692.242188 328.886719 692.339844 328.15625 C 692.4375 327.425781 692.535156 326.644531 692.730469 325.914062 C 692.878906 325.183594 693.074219 324.453125 693.316406 323.71875 C 693.558594 322.988281 693.804688 322.308594 694.097656 321.625 C 694.390625 320.941406 694.730469 320.257812 695.070312 319.578125 C 695.414062 318.894531 695.851562 318.261719 696.242188 317.675781 C 696.679688 317.042969 697.117188 316.457031 697.605469 315.871094 C 698.09375 315.285156 698.582031 314.75 699.117188 314.214844 C 699.652344 313.679688 700.238281 313.191406 700.824219 312.703125 C 701.410156 312.214844 701.996094 311.777344 702.628906 311.386719 C 703.261719 310.996094 703.894531 310.605469 704.578125 310.265625 C 705.261719 309.925781 705.941406 309.582031 706.625 309.289062 C 707.308594 308.996094 708.039062 308.753906 708.769531 308.558594 C 709.5 308.363281 710.234375 308.167969 710.964844 308.023438 C 711.695312 307.875 712.425781 307.777344 713.207031 307.683594 C 713.9375 307.585938 714.71875 307.585938 715.449219 307.585938 C 716.179688 307.585938 716.960938 307.632812 717.691406 307.683594 C 718.421875 307.730469 719.203125 307.875 719.933594 308.023438 C 720.664062 308.167969 721.398438 308.363281 722.128906 308.558594 C 722.859375 308.753906 723.542969 309.046875 724.273438 309.289062 C 724.957031 309.582031 725.636719 309.875 726.320312 310.265625 C 727.003906 310.605469 727.636719 310.996094 728.269531 311.386719 C 728.90625 311.777344 729.488281 312.265625 730.074219 312.703125 C 730.660156 313.191406 731.246094 313.679688 731.78125 314.214844 C 732.316406 314.75 732.851562 315.285156 733.292969 315.871094 C 733.78125 316.457031 734.21875 317.042969 734.65625 317.675781 C 735.097656 318.308594 735.484375 318.941406 735.828125 319.578125 C 736.167969 320.210938 736.507812 320.894531 736.800781 321.625 C 737.09375 322.308594 737.386719 323.039062 737.582031 323.71875 C 737.824219 324.453125 738.019531 325.183594 738.167969 325.914062 C 738.3125 326.644531 738.460938 327.378906 738.558594 328.15625 C 738.65625 328.886719 738.703125 329.667969 738.703125 330.398438 L 738.703125 380.808594 L 747.382812 380.808594 C 748.796875 380.125 750.304688 379.589844 751.816406 379.246094 C 753.378906 378.90625 754.9375 378.710938 756.496094 378.710938 C 758.058594 378.710938 759.617188 378.90625 761.175781 379.246094 C 762.738281 379.589844 764.199219 380.125 765.613281 380.808594 L 789.0625 380.808594 C 789.84375 380.808594 790.574219 380.855469 791.355469 380.90625 C 792.132812 381.003906 792.867188 381.101562 793.597656 381.246094 C 794.328125 381.394531 795.058594 381.585938 795.789062 381.78125 C 796.523438 382.027344 797.253906 382.269531 797.9375 382.5625 C 798.617188 382.855469 799.347656 383.195312 799.984375 383.539062 C 800.664062 383.878906 801.300781 384.269531 801.933594 384.707031 C 802.566406 385.148438 803.199219 385.585938 803.785156 386.074219 C 804.371094 386.558594 804.957031 387.046875 805.492188 387.585938 C 806.027344 388.121094 806.566406 388.707031 807.003906 389.289062 C 807.492188 389.875 807.929688 390.507812 808.367188 391.144531 C 808.808594 391.777344 809.195312 392.410156 809.539062 393.09375 C 809.878906 393.777344 810.222656 394.457031 810.511719 395.140625 C 810.804688 395.824219 811.050781 396.554688 811.292969 397.285156 C 811.539062 398.015625 811.683594 398.75 811.828125 399.480469 C 811.976562 400.210938 812.074219 400.992188 812.171875 401.722656 C 812.269531 402.503906 812.269531 403.234375 812.269531 404.011719 C 812.269531 405.425781 812.121094 406.839844 811.878906 408.207031 C 818.460938 409.523438 823.96875 412.105469 827.1875 417.859375 C 827.382812 418.152344 827.480469 418.492188 827.671875 418.832031 L 828.308594 416.980469 C 828.550781 416.199219 828.796875 415.421875 828.988281 414.640625 C 829.183594 413.859375 829.378906 413.082031 829.527344 412.253906 C 829.671875 411.472656 829.820312 410.644531 829.964844 409.863281 C 830.109375 409.082031 830.160156 408.253906 830.257812 407.425781 C 830.304688 406.597656 830.355469 405.816406 830.402344 404.988281 C 830.402344 404.160156 830.402344 403.378906 830.402344 402.550781 C 830.355469 401.722656 830.304688 400.941406 830.257812 400.113281 C 830.207031 399.285156 830.0625 398.503906 829.964844 397.675781 C 829.820312 396.847656 829.671875 396.066406 829.527344 395.285156 C 829.332031 394.507812 829.136719 393.679688 828.941406 392.898438 C 828.746094 392.117188 828.503906 391.339844 828.210938 390.558594 C 827.964844 389.777344 827.671875 389.046875 827.332031 388.265625 C 827.039062 387.535156 826.699219 386.753906 826.359375 386.023438 C 826.015625 385.292969 825.625 384.5625 825.234375 383.878906 C 824.847656 383.195312 824.40625 382.464844 823.96875 381.78125 C 823.53125 381.101562 823.089844 380.417969 822.605469 379.785156 C 822.117188 379.101562 821.628906 378.46875 821.09375 377.835938 C 820.554688 377.199219 820.019531 376.566406 819.484375 375.980469 C 818.949219 375.398438 818.363281 374.8125 817.777344 374.226562 C 817.191406 373.640625 816.605469 373.105469 815.972656 372.570312 C 815.339844 372.03125 814.707031 371.546875 814.074219 371.058594 C 813.4375 370.570312 812.757812 370.082031 812.074219 369.644531 C 811.390625 369.207031 810.707031 368.765625 810.027344 368.328125 C 809.34375 367.9375 808.613281 367.5 807.882812 367.15625 C 807.148438 366.769531 806.417969 366.425781 805.6875 366.085938 C 804.957031 365.742188 804.175781 365.453125 803.394531 365.160156 C 802.617188 364.867188 801.882812 364.621094 801.105469 364.378906 C 800.324219 364.136719 799.542969 363.941406 798.765625 363.746094 C 797.984375 363.550781 797.15625 363.402344 796.375 363.257812 C 795.597656 363.113281 794.765625 363.015625 793.9375 362.917969 C 793.109375 362.820312 792.328125 362.769531 791.5 362.722656 C 790.671875 362.671875 789.890625 362.625 789.0625 362.671875 L 756.789062 362.671875 L 756.789062 330.398438 C 756.789062 329.035156 756.691406 327.71875 756.546875 326.402344 C 756.398438 325.085938 756.15625 323.769531 755.914062 322.453125 C 755.621094 321.136719 755.277344 319.871094 754.890625 318.554688 C 754.5 317.285156 754.011719 316.019531 753.476562 314.800781 C 752.9375 313.582031 752.355469 312.363281 751.71875 311.191406 C 751.085938 310.023438 750.355469 308.851562 749.625 307.777344 C 748.84375 306.65625 748.0625 305.585938 747.1875 304.5625 C 746.308594 303.539062 745.429688 302.5625 744.457031 301.585938 C 743.480469 300.660156 742.507812 299.734375 741.433594 298.90625 C 740.410156 298.078125 739.289062 297.25 738.167969 296.519531 C 737.046875 295.785156 735.875 295.105469 734.707031 294.46875 C 733.535156 293.835938 732.316406 293.300781 731.050781 292.765625 C 729.832031 292.277344 728.5625 291.789062 727.246094 291.449219 C 725.980469 291.058594 724.664062 290.714844 723.347656 290.472656 C 722.03125 290.230469 720.714844 290.035156 719.347656 289.886719 C 718.179688 289.691406 716.863281 289.644531 715.5 289.644531 C 714.132812 289.644531 712.816406 289.691406 711.5 289.839844 C 710.183594 289.984375 708.820312 290.179688 707.503906 290.425781 C 706.1875 290.667969 704.871094 291.007812 703.601562 291.398438 C 702.335938 291.789062 701.066406 292.226562 699.800781 292.714844 C 698.582031 293.203125 697.363281 293.789062 696.144531 294.421875 C 694.972656 295.054688 693.804688 295.738281 692.683594 296.46875 C 691.5625 297.199219 690.488281 297.980469 689.417969 298.859375 C 688.394531 299.6875 687.367188 300.613281 686.394531 301.539062 C 685.417969 302.464844 684.542969 303.488281 683.664062 304.511719 C 682.785156 305.535156 682.007812 306.609375 681.226562 307.730469 C 680.445312 308.851562 679.765625 309.972656 679.128906 311.144531 C 678.496094 312.3125 677.910156 313.53125 677.375 314.75 C 676.839844 315.96875 676.398438 317.238281 675.960938 318.503906 C 675.570312 319.773438 675.230469 321.089844 674.9375 322.40625 C 674.644531 323.71875 674.449219 325.035156 674.304688 326.351562 C 674.15625 327.667969 674.058594 329.035156 674.058594 330.351562 L 674.058594 331.128906 C 678.984375 343.027344 681.761719 361.601562 678.007812 370.667969 Z M 678.007812 370.667969 " fill-opacity="1" fill-rule="nonzero"/></g><path fill="#7bc1b7" d="M 613.558594 349.460938 C 614.339844 355.410156 620.433594 366.085938 627.648438 374.226562 C 630.621094 377.589844 635.058594 381.878906 639.25 383.441406 C 641.152344 384.074219 643.054688 384.511719 645.054688 384.707031 C 647.050781 384.902344 649.003906 384.855469 651 384.5625 L 653.097656 389.339844 C 653.242188 389.679688 653.4375 390.023438 653.683594 390.3125 C 653.925781 390.605469 654.167969 390.898438 654.511719 391.144531 C 654.804688 391.386719 655.144531 391.582031 655.484375 391.726562 C 655.828125 391.875 656.21875 391.972656 656.605469 392.070312 L 656.800781 392.75 L 658.996094 391.777344 C 659.191406 392.410156 659.433594 392.945312 659.679688 393.484375 C 661.140625 396.796875 663.089844 399.871094 665.480469 402.550781 C 667.574219 404.84375 669.917969 406.890625 672.5 408.597656 C 675.082031 410.300781 677.863281 411.667969 680.835938 412.691406 C 689.367188 415.761719 696.535156 414.738281 702.871094 413.8125 C 713.695312 412.253906 720.859375 411.226562 730.707031 431.996094 C 736.363281 443.988281 743.871094 454.859375 751.769531 462.710938 C 761.175781 472.019531 771.121094 476.992188 780.628906 477.238281 C 794.71875 477.53125 807.050781 467.828125 817.386719 448.425781 C 824.40625 435.214844 826.113281 426.339844 822.847656 420.539062 C 818.800781 413.324219 808.808594 412.789062 797.203125 412.105469 C 788.378906 411.617188 778.386719 411.035156 770.488281 407.328125 C 770.636719 407.035156 770.78125 406.742188 770.929688 406.5 C 771.074219 406.207031 771.171875 405.914062 771.316406 405.621094 C 771.414062 405.328125 771.5625 405.035156 771.660156 404.746094 C 771.757812 404.453125 771.855469 404.160156 771.953125 403.816406 C 772.050781 403.527344 772.097656 403.183594 772.195312 402.890625 C 772.242188 402.597656 772.292969 402.257812 772.339844 401.964844 C 772.390625 401.625 772.4375 401.332031 772.4375 400.992188 C 772.488281 400.648438 772.488281 400.355469 772.488281 400.015625 C 772.488281 399.675781 772.488281 399.382812 772.488281 399.039062 C 772.488281 398.699219 772.4375 398.40625 772.4375 398.066406 C 772.390625 397.722656 772.339844 397.433594 772.292969 397.140625 C 772.242188 396.847656 772.195312 396.503906 772.097656 396.214844 C 772.050781 395.921875 771.953125 395.578125 771.855469 395.285156 C 771.757812 394.996094 771.660156 394.703125 771.5625 394.359375 C 771.464844 394.066406 771.316406 393.777344 771.21875 393.484375 C 771.074219 393.191406 770.976562 392.898438 770.832031 392.605469 C 770.683594 392.3125 770.539062 392.019531 770.390625 391.777344 C 770.246094 391.484375 770.050781 391.242188 769.902344 390.949219 C 769.710938 390.703125 769.5625 390.410156 769.367188 390.167969 C 769.171875 389.925781 768.976562 389.679688 768.78125 389.4375 C 768.585938 389.191406 768.34375 388.949219 768.148438 388.753906 C 767.90625 388.511719 767.710938 388.316406 767.464844 388.070312 C 767.222656 387.875 766.980469 387.632812 766.734375 387.4375 C 766.492188 387.242188 766.246094 387.046875 765.957031 386.851562 C 765.710938 386.65625 765.417969 386.511719 765.175781 386.316406 C 764.882812 386.171875 764.640625 385.976562 764.347656 385.828125 C 764.054688 385.683594 763.761719 385.535156 763.46875 385.390625 C 763.175781 385.246094 762.882812 385.148438 762.589844 385 C 762.300781 384.902344 762.007812 384.757812 761.714844 384.660156 C 761.421875 384.5625 761.082031 384.464844 760.789062 384.414062 C 760.496094 384.316406 760.152344 384.269531 759.863281 384.21875 C 759.570312 384.171875 759.226562 384.121094 758.933594 384.074219 C 758.644531 384.027344 758.300781 383.976562 757.960938 383.976562 C 757.617188 383.976562 757.328125 383.929688 756.984375 383.929688 C 756.644531 383.929688 756.351562 383.929688 756.011719 383.929688 C 755.667969 383.929688 755.375 383.976562 755.035156 384.027344 C 754.695312 384.074219 754.402344 384.121094 754.109375 384.171875 C 753.816406 384.21875 753.476562 384.269531 753.183594 384.367188 C 752.890625 384.464844 752.546875 384.511719 752.257812 384.609375 C 751.964844 384.707031 751.671875 384.804688 751.328125 384.902344 C 751.039062 385 750.746094 385.148438 750.453125 385.246094 C 750.160156 385.390625 749.867188 385.488281 749.574219 385.632812 C 749.28125 385.78125 748.988281 385.925781 748.746094 386.121094 C 748.503906 386.316406 748.210938 386.464844 747.917969 386.65625 C 747.671875 386.851562 747.382812 387.046875 747.136719 387.242188 C 746.894531 387.4375 746.648438 387.632812 746.40625 387.828125 C 746.164062 388.023438 745.917969 388.265625 745.722656 388.460938 C 745.480469 388.707031 745.285156 388.902344 745.089844 389.144531 C 744.894531 389.386719 744.652344 389.632812 744.457031 389.875 C 744.261719 390.121094 744.066406 390.363281 743.871094 390.65625 C 743.675781 390.898438 743.53125 391.191406 743.335938 391.433594 C 743.1875 391.726562 742.992188 391.972656 742.847656 392.265625 C 742.699219 392.558594 742.554688 392.847656 742.410156 393.140625 C 742.261719 393.433594 742.164062 393.726562 742.019531 394.019531 C 741.921875 394.3125 741.824219 394.605469 741.726562 394.945312 C 741.628906 395.238281 741.53125 395.53125 741.480469 395.871094 C 741.386719 396.164062 741.335938 396.503906 741.289062 396.796875 C 741.238281 397.089844 741.191406 397.433594 741.140625 397.722656 C 741.09375 398.066406 741.09375 398.359375 741.042969 398.699219 C 741.042969 399.039062 740.996094 399.332031 740.996094 399.675781 C 740.996094 400.015625 740.996094 400.308594 741.042969 400.648438 C 741.042969 400.992188 741.09375 401.28125 741.140625 401.625 C 741.191406 401.964844 741.238281 402.257812 741.289062 402.550781 C 741.335938 402.84375 741.433594 403.183594 741.480469 403.476562 C 741.53125 403.769531 741.628906 404.109375 741.726562 404.402344 C 741.824219 404.695312 741.921875 404.988281 742.019531 405.328125 C 742.117188 405.621094 742.261719 405.914062 742.410156 406.207031 C 742.554688 406.5 742.699219 406.792969 742.847656 407.085938 C 742.992188 407.378906 743.140625 407.621094 743.335938 407.914062 C 743.480469 408.207031 743.675781 408.449219 743.871094 408.691406 C 744.066406 408.9375 744.261719 409.230469 744.457031 409.472656 C 744.652344 409.71875 744.847656 409.960938 745.089844 410.203125 C 745.285156 410.449219 745.527344 410.691406 745.773438 410.886719 C 746.015625 411.128906 746.210938 411.324219 746.453125 411.519531 C 746.699219 411.714844 746.941406 411.910156 747.1875 412.105469 C 747.429688 412.300781 747.671875 412.496094 747.964844 412.691406 C 748.210938 412.886719 748.503906 413.03125 748.796875 413.226562 C 749.085938 413.375 749.332031 413.570312 749.625 413.714844 C 749.917969 413.859375 750.207031 414.007812 750.5 414.105469 C 750.792969 414.25 751.085938 414.347656 751.378906 414.445312 C 751.671875 414.542969 751.964844 414.640625 752.304688 414.738281 C 752.597656 414.835938 752.9375 414.933594 753.230469 414.980469 C 753.523438 415.078125 753.863281 415.128906 754.15625 415.175781 C 754.449219 415.226562 754.792969 415.273438 755.082031 415.324219 C 755.425781 415.371094 755.71875 415.371094 756.058594 415.421875 C 756.398438 415.421875 756.691406 415.421875 757.035156 415.421875 C 757.375 415.421875 757.667969 415.421875 758.007812 415.371094 C 758.351562 415.371094 758.644531 415.324219 758.984375 415.273438 C 759.277344 415.226562 759.617188 415.175781 759.910156 415.128906 C 760.203125 415.078125 760.542969 414.980469 760.835938 414.933594 C 761.128906 414.835938 761.46875 414.789062 761.761719 414.691406 C 762.054688 414.59375 762.347656 414.496094 762.640625 414.347656 C 762.933594 414.25 763.226562 414.105469 763.519531 413.957031 C 763.808594 413.8125 764.101562 413.664062 764.394531 413.519531 C 764.6875 413.375 764.929688 413.226562 765.222656 413.03125 C 765.515625 412.886719 765.761719 412.691406 766.003906 412.496094 C 775.558594 417.566406 786.917969 418.199219 797.007812 418.785156 C 806.222656 419.320312 814.902344 419.808594 817.144531 423.757812 C 818.507812 426.144531 818.65625 431.800781 811.585938 445.160156 C 802.566406 462.171875 792.230469 470.703125 780.96875 470.410156 C 762.835938 470.023438 745.96875 447.890625 737.046875 429.070312 C 725.054688 403.816406 713.402344 405.476562 702.140625 407.085938 C 696.339844 407.914062 690.34375 408.789062 683.371094 406.304688 C 672.402344 402.355469 667.527344 394.898438 665.382812 388.996094 L 665.871094 388.804688 C 666.164062 388.707031 666.40625 388.511719 666.648438 388.363281 C 666.894531 388.21875 667.136719 387.972656 667.332031 387.777344 C 667.527344 387.585938 667.722656 387.339844 667.917969 387.046875 C 668.0625 386.804688 668.210938 386.511719 668.308594 386.21875 C 668.40625 385.925781 668.503906 385.632812 668.550781 385.339844 C 668.601562 385.050781 668.648438 384.757812 668.648438 384.414062 C 668.648438 384.121094 668.601562 383.832031 668.550781 383.539062 C 668.503906 383.246094 668.40625 382.953125 668.257812 382.660156 L 666.164062 377.882812 C 667.722656 376.617188 669.085938 375.203125 670.304688 373.640625 C 671.523438 372.082031 672.546875 370.328125 673.328125 368.523438 C 677.328125 358.871094 672.160156 334.203125 665.871094 326.597656 C 662.992188 323.183594 658.65625 321.234375 653.195312 320.894531 C 652.851562 320.257812 652.414062 319.675781 651.878906 319.136719 C 651.34375 318.601562 650.804688 318.164062 650.171875 317.773438 C 649.539062 317.382812 648.855469 317.089844 648.125 316.894531 C 647.394531 316.699219 646.660156 316.601562 645.929688 316.601562 C 645.589844 316.601562 645.25 316.601562 644.90625 316.652344 C 644.566406 316.699219 644.222656 316.75 643.933594 316.847656 C 643.589844 316.945312 643.296875 317.042969 642.957031 317.140625 C 642.664062 317.238281 642.324219 317.382812 642.03125 317.578125 C 641.738281 317.722656 641.445312 317.917969 641.152344 318.113281 C 640.859375 318.308594 640.617188 318.503906 640.375 318.75 C 640.128906 318.992188 639.886719 319.234375 639.691406 319.480469 C 639.496094 319.722656 639.25 320.015625 639.105469 320.308594 C 638.910156 320.601562 638.765625 320.894531 638.617188 321.1875 C 638.472656 321.476562 638.324219 321.820312 638.226562 322.113281 C 638.128906 322.453125 638.03125 322.746094 637.9375 323.085938 C 637.886719 323.429688 637.839844 323.769531 637.789062 324.109375 C 637.742188 324.453125 637.742188 324.792969 637.789062 325.132812 C 637.789062 325.476562 637.839844 325.816406 637.886719 326.15625 C 637.9375 326.5 638.03125 326.839844 638.128906 327.132812 C 638.226562 327.472656 638.324219 327.765625 638.472656 328.058594 C 638.8125 328.789062 639.203125 329.472656 639.738281 330.105469 C 640.277344 330.742188 640.859375 331.226562 641.542969 331.667969 C 642.226562 332.105469 642.957031 332.445312 643.738281 332.640625 C 644.515625 332.835938 645.296875 332.984375 646.125 332.933594 C 646.953125 332.933594 647.734375 332.789062 648.515625 332.542969 C 649.292969 332.300781 650.027344 331.910156 650.660156 331.472656 C 651.34375 330.984375 651.925781 330.449219 652.414062 329.816406 C 652.902344 329.179688 653.292969 328.449219 653.585938 327.71875 C 656.65625 328.011719 658.945312 329.035156 660.457031 330.742188 L 660.605469 330.9375 C 662.847656 333.617188 665.285156 340.539062 666.746094 348.097656 C 668.160156 355.652344 668.308594 362.917969 667.039062 365.9375 C 664.75 371.496094 658.460938 375.203125 656.507812 376.273438 C 654.363281 377.003906 647.394531 379.101562 641.785156 377.003906 C 638.714844 375.882812 633.546875 370.910156 628.917969 364.621094 C 624.285156 358.332031 620.921875 351.949219 620.484375 348.4375 C 620.191406 346.097656 620.96875 343.660156 622.921875 341.074219 C 623.210938 341.222656 623.554688 341.320312 623.894531 341.367188 C 624.238281 341.464844 624.527344 341.515625 624.871094 341.5625 C 625.210938 341.613281 625.554688 341.613281 625.894531 341.660156 C 626.234375 341.660156 626.578125 341.660156 626.917969 341.613281 C 627.257812 341.5625 627.601562 341.515625 627.894531 341.417969 C 628.234375 341.320312 628.527344 341.222656 628.867188 341.125 C 629.160156 341.027344 629.5 340.882812 629.792969 340.734375 C 630.085938 340.589844 630.378906 340.394531 630.671875 340.199219 C 630.964844 340.003906 631.207031 339.808594 631.453125 339.566406 C 631.695312 339.320312 631.9375 339.125 632.183594 338.832031 C 632.425781 338.589844 632.621094 338.296875 632.816406 338.054688 C 633.011719 337.761719 633.15625 337.46875 633.351562 337.175781 C 633.5 336.882812 633.644531 336.589844 633.742188 336.25 C 633.839844 335.957031 633.9375 335.617188 634.035156 335.273438 C 634.132812 334.933594 634.183594 334.640625 634.183594 334.300781 C 634.230469 333.957031 634.230469 333.617188 634.230469 333.277344 C 634.230469 332.933594 634.183594 332.59375 634.132812 332.253906 C 634.085938 331.910156 634.035156 331.570312 633.9375 331.277344 C 633.839844 330.9375 633.742188 330.644531 633.597656 330.300781 C 633.449219 330.007812 633.304688 329.667969 633.15625 329.375 C 633.011719 329.082031 632.816406 328.789062 632.621094 328.546875 C 632.425781 328.253906 632.230469 328.011719 631.988281 327.765625 C 631.746094 327.523438 631.5 327.28125 631.257812 327.085938 C 631.011719 326.890625 630.71875 326.695312 630.429688 326.5 C 630.136719 326.304688 629.84375 326.15625 629.550781 326.011719 C 629.257812 325.867188 628.917969 325.71875 628.625 325.621094 C 628.28125 325.523438 627.992188 325.425781 627.648438 325.378906 C 627.308594 325.328125 626.964844 325.28125 626.675781 325.230469 C 626.332031 325.183594 625.992188 325.183594 625.652344 325.230469 C 625.308594 325.230469 624.96875 325.28125 624.625 325.328125 C 624.285156 325.378906 623.945312 325.476562 623.652344 325.574219 C 623.308594 325.671875 623.019531 325.769531 622.726562 325.914062 C 622.238281 326.109375 621.800781 326.351562 621.359375 326.644531 C 620.921875 326.9375 620.53125 327.28125 620.191406 327.621094 C 619.800781 328.011719 619.507812 328.402344 619.214844 328.789062 C 618.921875 329.179688 618.679688 329.667969 618.484375 330.15625 C 618.289062 330.644531 618.09375 331.128906 617.996094 331.617188 C 617.898438 332.105469 617.800781 332.640625 617.800781 333.128906 C 617.800781 333.664062 617.800781 334.152344 617.898438 334.691406 C 617.996094 335.175781 618.09375 335.714844 618.289062 336.199219 C 614.488281 340.539062 612.976562 345.074219 613.558594 349.460938 Z M 613.558594 349.460938 " fill-opacity="1" fill-rule="nonzero"/></svg>