<svg xmlns="http://www.w3.org/2000/svg" xmlns:xlink="http://www.w3.org/1999/xlink" width="319" zoomAndPan="magnify" viewBox="0 0 239.25 231" height="308" preserveAspectRatio="xMidYMid meet" version="1.0"><defs><clipPath id="b0781e36ea"><path d="M 152 0.359375 L 237.753906 0.359375 L 237.753906 77 L 152 77 Z M 152 0.359375 " clip-rule="nonzero"/></clipPath><clipPath id="f3ab7c4e2e"><path d="M 0 80 L 157 80 L 157 229.890625 L 0 229.890625 Z M 0 80 " clip-rule="nonzero"/></clipPath><clipPath id="896262ba10"><path d="M 71 0.359375 L 229.53125 0.359375 L 229.53125 130 L 71 130 Z M 71 0.359375 " clip-rule="nonzero"/></clipPath></defs><g clip-path="url(#b0781e36ea)"><path fill="#0b8fac" d="M 233.320312 2.285156 C 232.488281 0.433594 230.121094 0.359375 229.128906 2.109375 C 224.535156 10.089844 216.316406 15.066406 206.929688 15.066406 L 195.082031 15.066406 C 179.386719 15.066406 166.648438 27.800781 166.648438 43.5 C 166.648438 44.535156 166.769531 45.527344 166.871094 46.535156 C 176.320312 39.765625 189.957031 34.019531 209.296875 34.019531 C 210.601562 34.019531 211.667969 35.085938 211.667969 36.390625 C 211.667969 37.695312 210.601562 38.761719 209.296875 38.761719 C 172.070312 38.761719 156.285156 61.582031 152.789062 70.15625 C 151.8125 72.566406 152.964844 75.324219 155.378906 76.316406 C 157.808594 77.320312 160.5625 76.152344 161.570312 73.753906 C 161.792969 73.21875 164.664062 66.660156 172.21875 60.335938 C 177.015625 66.835938 186.136719 73.042969 198.117188 71.769531 C 221.367188 70.082031 237.730469 49.230469 237.730469 23.699219 C 237.730469 16.265625 236.132812 8.566406 233.320312 2.285156 Z M 233.320312 2.285156 " fill-opacity="1" fill-rule="nonzero"/></g><g clip-path="url(#f3ab7c4e2e)"><path fill="#7bc1b7" d="M 147.203125 176.675781 C 143.898438 173.371094 140.839844 169.824219 138.066406 166.082031 L 138.066406 187.949219 C 138.066406 188.730469 138.066406 189.507812 138.019531 190.234375 C 137.972656 190.964844 137.875 191.742188 137.726562 192.519531 C 137.582031 193.296875 137.4375 194.027344 137.195312 194.753906 C 137 195.484375 136.757812 196.210938 136.464844 196.941406 C 136.171875 197.671875 135.882812 198.351562 135.492188 199.03125 C 135.152344 199.710938 134.761719 200.390625 134.324219 201.023438 C 133.890625 201.65625 133.453125 202.289062 132.964844 202.871094 C 132.480469 203.453125 131.992188 204.035156 131.410156 204.570312 C 130.875 205.105469 130.292969 205.640625 129.710938 206.125 C 129.125 206.613281 128.496094 207.097656 127.863281 207.535156 C 127.230469 207.972656 126.550781 208.363281 125.871094 208.75 C 125.191406 209.140625 124.507812 209.429688 123.78125 209.773438 C 123.050781 210.0625 122.371094 210.355469 121.59375 210.550781 C 120.863281 210.792969 120.136719 210.988281 119.359375 211.132812 C 118.582031 211.277344 117.851562 211.375 117.074219 211.472656 C 116.296875 211.570312 115.519531 211.570312 114.789062 211.570312 C 114.011719 211.570312 113.234375 211.519531 112.503906 211.472656 C 111.726562 211.375 111 211.277344 110.222656 211.132812 C 109.445312 210.988281 108.714844 210.792969 107.984375 210.550781 C 107.257812 210.304688 106.527344 210.0625 105.800781 209.773438 C 105.070312 209.480469 104.390625 209.140625 103.710938 208.75 C 103.027344 208.363281 102.398438 207.972656 101.714844 207.535156 C 101.085938 207.097656 100.453125 206.660156 99.871094 206.125 C 99.285156 205.640625 98.703125 205.105469 98.167969 204.570312 C 97.632812 204.035156 97.101562 203.453125 96.613281 202.871094 C 96.128906 202.289062 95.691406 201.65625 95.253906 201.023438 C 94.816406 200.390625 94.425781 199.710938 94.085938 199.03125 C 93.746094 198.351562 93.40625 197.671875 93.113281 196.941406 C 92.824219 196.210938 92.578125 195.484375 92.386719 194.753906 C 92.191406 194.027344 91.996094 193.25 91.851562 192.519531 C 91.707031 191.742188 91.609375 191.011719 91.558594 190.234375 C 91.511719 189.457031 91.460938 188.679688 91.511719 187.949219 L 91.511719 137.652344 L 41.355469 137.652344 C 40.140625 137.652344 38.925781 137.554688 37.710938 137.359375 C 36.496094 137.164062 35.332031 136.875 34.164062 136.484375 C 33 136.097656 31.878906 135.660156 30.8125 135.074219 C 29.742188 134.542969 28.671875 133.859375 27.699219 133.179688 C 26.730469 132.453125 25.804688 131.675781 24.929688 130.800781 C 24.054688 129.925781 23.277344 129 22.550781 128.027344 C 21.820312 127.058594 21.1875 125.988281 20.65625 124.917969 C 20.121094 123.851562 19.632812 122.683594 19.246094 121.566406 C 18.855469 120.398438 18.613281 119.234375 18.417969 118.019531 C 18.222656 116.804688 18.128906 115.585938 18.128906 114.371094 C 18.128906 113.15625 18.222656 111.941406 18.417969 110.726562 C 18.613281 109.511719 18.90625 108.347656 19.292969 107.179688 C 19.683594 106.015625 20.167969 104.894531 20.703125 103.828125 C 21.238281 102.757812 21.917969 101.6875 22.597656 100.714844 C 23.328125 99.746094 24.105469 98.820312 24.980469 97.945312 C 25.855469 97.070312 26.777344 96.292969 27.75 95.613281 L 29.5 94.351562 C 27.214844 92.453125 25.125 90.414062 23.179688 88.179688 C 21.089844 85.84375 19.195312 83.367188 17.398438 80.792969 L 16.523438 81.421875 C 15.648438 82.054688 14.824219 82.734375 14.046875 83.464844 C 13.21875 84.191406 12.441406 84.921875 11.710938 85.699219 C 10.984375 86.476562 10.253906 87.253906 9.574219 88.082031 C 8.894531 88.90625 8.214844 89.734375 7.628906 90.65625 C 7 91.53125 6.414062 92.453125 5.878906 93.378906 C 5.347656 94.300781 4.8125 95.226562 4.324219 96.195312 C 3.839844 97.167969 3.402344 98.140625 3.011719 99.113281 C 2.625 100.085938 2.234375 101.105469 1.945312 102.125 C 1.605469 103.148438 1.359375 104.167969 1.117188 105.238281 C 0.875 106.304688 0.679688 107.324219 0.535156 108.394531 C 0.390625 109.464844 0.242188 110.535156 0.195312 111.601562 C 0.144531 112.71875 0.144531 113.789062 0.144531 114.859375 C 0.144531 115.929688 0.195312 116.996094 0.292969 118.066406 C 0.390625 119.136719 0.535156 120.203125 0.679688 121.273438 C 0.875 122.34375 1.070312 123.363281 1.3125 124.433594 C 1.554688 125.453125 1.894531 126.523438 2.1875 127.542969 C 2.527344 128.5625 2.914062 129.585938 3.304688 130.554688 C 3.742188 131.527344 4.179688 132.5 4.664062 133.472656 C 5.152344 134.445312 5.6875 135.367188 6.269531 136.289062 C 6.851562 137.214844 7.4375 138.089844 8.066406 138.964844 C 8.699219 139.839844 9.378906 140.664062 10.058594 141.492188 C 10.742188 142.316406 11.519531 143.09375 12.246094 143.824219 C 13.023438 144.601562 13.800781 145.28125 14.628906 146.011719 C 15.453125 146.691406 16.28125 147.371094 17.15625 148.003906 C 18.03125 148.636719 18.90625 149.21875 19.828125 149.800781 C 20.75 150.382812 21.675781 150.871094 22.648438 151.355469 C 23.617188 151.84375 24.589844 152.28125 25.5625 152.71875 C 26.535156 153.105469 27.554688 153.496094 28.574219 153.835938 C 29.597656 154.175781 30.617188 154.464844 31.6875 154.710938 C 32.707031 154.953125 33.777344 155.148438 34.84375 155.339844 C 35.914062 155.488281 36.984375 155.632812 38.050781 155.730469 C 39.121094 155.828125 40.191406 155.875 41.261719 155.875 L 73.480469 155.875 L 73.480469 188.046875 C 73.480469 188.730469 73.480469 189.410156 73.480469 190.089844 C 73.480469 190.769531 73.53125 191.449219 73.578125 192.128906 C 73.625 192.8125 73.722656 193.492188 73.820312 194.171875 C 73.917969 194.851562 74.015625 195.53125 74.160156 196.210938 C 74.308594 196.894531 74.402344 197.574219 74.597656 198.207031 C 74.746094 198.886719 74.9375 199.515625 75.132812 200.199219 C 75.328125 200.828125 75.523438 201.511719 75.765625 202.140625 C 76.007812 202.773438 76.203125 203.40625 76.492188 204.035156 C 76.738281 204.667969 77.027344 205.300781 77.320312 205.933594 C 77.613281 206.5625 77.902344 207.148438 78.195312 207.777344 C 78.535156 208.363281 78.828125 208.992188 79.167969 209.578125 C 79.507812 210.160156 79.847656 210.742188 80.234375 211.328125 C 80.625 211.910156 81.011719 212.445312 81.402344 213.027344 C 81.792969 213.5625 82.230469 214.097656 82.664062 214.632812 C 83.101562 215.167969 83.539062 215.699219 83.976562 216.1875 C 84.414062 216.671875 84.902344 217.207031 85.386719 217.691406 C 85.875 218.179688 86.359375 218.664062 86.84375 219.101562 C 87.332031 219.539062 87.867188 220.027344 88.402344 220.464844 C 88.933594 220.902344 89.46875 221.339844 90.003906 221.726562 C 90.539062 222.117188 91.121094 222.554688 91.65625 222.894531 C 92.238281 223.28125 92.773438 223.621094 93.359375 224.011719 C 93.941406 224.351562 94.523438 224.691406 95.15625 225.03125 C 95.738281 225.371094 96.371094 225.664062 97.003906 225.953125 C 97.632812 226.246094 98.21875 226.539062 98.847656 226.78125 C 99.480469 227.023438 100.113281 227.316406 100.746094 227.511719 C 101.375 227.753906 102.058594 227.949219 102.6875 228.140625 C 103.320312 228.335938 104 228.53125 104.679688 228.675781 C 105.363281 228.824219 105.992188 229.015625 106.671875 229.113281 C 107.355469 229.210938 108.035156 229.355469 108.667969 229.453125 C 109.347656 229.550781 110.027344 229.648438 110.707031 229.695312 C 111.386719 229.746094 112.066406 229.792969 112.75 229.84375 C 113.429688 229.890625 114.109375 229.890625 114.789062 229.890625 C 115.46875 229.890625 116.148438 229.890625 116.832031 229.84375 C 117.511719 229.792969 118.191406 229.746094 118.871094 229.695312 C 119.550781 229.648438 120.234375 229.550781 120.914062 229.453125 C 121.59375 229.355469 122.273438 229.257812 122.90625 229.113281 C 123.539062 228.96875 124.21875 228.824219 124.898438 228.675781 C 125.578125 228.53125 126.210938 228.335938 126.890625 228.140625 C 127.523438 227.949219 128.203125 227.703125 128.835938 227.511719 C 129.464844 227.265625 130.097656 227.023438 130.730469 226.78125 C 131.363281 226.539062 131.992188 226.246094 132.578125 225.953125 C 133.207031 225.664062 133.792969 225.371094 134.421875 225.03125 C 135.007812 224.691406 135.636719 224.351562 136.222656 224.011719 C 136.804688 223.671875 137.386719 223.28125 137.921875 222.894531 C 138.503906 222.503906 139.039062 222.117188 139.574219 221.726562 C 140.109375 221.339844 140.644531 220.902344 141.179688 220.464844 C 141.714844 220.027344 142.199219 219.589844 142.734375 219.101562 C 143.21875 218.664062 143.707031 218.179688 144.191406 217.691406 C 144.675781 217.207031 145.113281 216.722656 145.601562 216.1875 C 146.039062 215.699219 146.476562 215.167969 146.914062 214.632812 C 147.351562 214.097656 147.738281 213.5625 148.175781 213.027344 C 148.566406 212.492188 148.953125 211.910156 149.34375 211.328125 C 149.730469 210.742188 150.070312 210.160156 150.414062 209.578125 C 150.753906 208.992188 151.09375 208.410156 151.382812 207.777344 C 151.675781 207.195312 152.015625 206.5625 152.257812 205.933594 C 152.550781 205.300781 152.792969 204.667969 153.085938 204.035156 C 153.328125 203.40625 153.570312 202.773438 153.8125 202.140625 C 154.058594 201.511719 154.25 200.828125 154.445312 200.199219 C 154.640625 199.566406 154.835938 198.886719 154.980469 198.207031 C 155.125 197.523438 155.273438 196.894531 155.417969 196.210938 C 155.5625 195.53125 155.660156 194.851562 155.757812 194.171875 C 155.855469 193.492188 155.902344 192.8125 156 192.128906 C 156.050781 191.449219 156.097656 190.769531 156.097656 190.089844 C 156.097656 189.410156 156.148438 188.730469 156.097656 188.046875 L 156.097656 184.355469 C 152.9375 181.925781 149.925781 179.445312 147.203125 176.675781 Z M 147.203125 176.675781 " fill-opacity="1" fill-rule="nonzero"/></g><g clip-path="url(#896262ba10)"><path fill="#0b8fac" d="M 77.464844 81.132812 C 76.105469 84.339844 74.210938 87.207031 71.78125 89.683594 L 72.363281 91.046875 L 72.363281 91.191406 L 91.609375 91.191406 L 91.609375 40.988281 C 91.609375 40.261719 91.65625 39.484375 91.753906 38.753906 C 91.851562 38.023438 91.949219 37.246094 92.144531 36.519531 C 92.289062 35.789062 92.484375 35.058594 92.726562 34.332031 C 92.96875 33.601562 93.210938 32.921875 93.503906 32.242188 C 93.796875 31.5625 94.136719 30.878906 94.476562 30.199219 C 94.816406 29.519531 95.253906 28.886719 95.640625 28.304688 C 96.078125 27.671875 96.515625 27.089844 97.003906 26.507812 C 97.488281 25.921875 97.972656 25.390625 98.507812 24.855469 C 99.042969 24.320312 99.625 23.835938 100.210938 23.347656 C 100.792969 22.863281 101.375 22.425781 102.007812 22.035156 C 102.640625 21.648438 103.273438 21.257812 103.953125 20.917969 C 104.632812 20.578125 105.3125 20.238281 105.992188 19.945312 C 106.671875 19.65625 107.402344 19.410156 108.132812 19.21875 C 108.859375 19.023438 109.589844 18.828125 110.320312 18.683594 C 111.046875 18.535156 111.777344 18.441406 112.554688 18.34375 C 113.28125 18.246094 114.0625 18.246094 114.789062 18.246094 C 115.519531 18.246094 116.296875 18.292969 117.023438 18.34375 C 117.753906 18.390625 118.53125 18.535156 119.261719 18.683594 C 119.988281 18.828125 120.71875 19.023438 121.449219 19.21875 C 122.175781 19.410156 122.855469 19.703125 123.585938 19.945312 C 124.265625 20.238281 124.945312 20.53125 125.628906 20.917969 C 126.308594 21.257812 126.9375 21.648438 127.570312 22.035156 C 128.203125 22.425781 128.785156 22.910156 129.367188 23.347656 C 129.953125 23.835938 130.535156 24.320312 131.070312 24.855469 C 131.605469 25.390625 132.140625 25.921875 132.578125 26.507812 C 133.0625 27.089844 133.5 27.671875 133.9375 28.304688 C 134.375 28.9375 134.761719 29.570312 135.105469 30.199219 C 135.445312 30.832031 135.785156 31.511719 136.074219 32.242188 C 136.367188 32.921875 136.660156 33.652344 136.851562 34.332031 C 137.097656 35.058594 137.289062 35.789062 137.4375 36.519531 C 137.582031 37.246094 137.726562 37.976562 137.824219 38.753906 C 137.921875 39.484375 137.972656 40.261719 137.972656 40.988281 L 137.972656 91.238281 L 146.621094 91.238281 C 148.03125 90.558594 149.539062 90.023438 151.042969 89.683594 C 152.597656 89.34375 154.15625 89.148438 155.710938 89.148438 C 157.265625 89.148438 158.820312 89.34375 160.375 89.683594 C 161.929688 90.023438 163.386719 90.558594 164.796875 91.238281 L 188.171875 91.238281 C 188.949219 91.238281 189.679688 91.289062 190.457031 91.335938 C 191.234375 91.433594 191.964844 91.53125 192.691406 91.675781 C 193.421875 91.824219 194.152344 92.019531 194.878906 92.210938 C 195.609375 92.453125 196.335938 92.699219 197.019531 92.988281 C 197.699219 93.28125 198.425781 93.621094 199.058594 93.960938 C 199.738281 94.300781 200.371094 94.691406 201.003906 95.128906 C 201.636719 95.566406 202.265625 96.003906 202.851562 96.488281 C 203.433594 96.976562 204.015625 97.460938 204.550781 97.996094 C 205.085938 98.53125 205.621094 99.113281 206.058594 99.695312 C 206.542969 100.28125 206.980469 100.910156 207.417969 101.542969 C 207.855469 102.175781 208.246094 102.804688 208.585938 103.488281 C 208.925781 104.167969 209.265625 104.847656 209.554688 105.527344 C 209.847656 106.207031 210.089844 106.9375 210.335938 107.667969 C 210.578125 108.394531 210.722656 109.125 210.867188 109.851562 C 211.015625 110.582031 211.113281 111.359375 211.207031 112.089844 C 211.304688 112.867188 211.304688 113.59375 211.304688 114.371094 C 211.304688 115.78125 211.160156 117.191406 210.917969 118.550781 C 217.476562 119.863281 222.96875 122.441406 226.175781 128.175781 C 226.371094 128.464844 226.46875 128.808594 226.664062 129.148438 L 227.296875 127.300781 C 227.539062 126.523438 227.78125 125.746094 227.976562 124.96875 C 228.167969 124.191406 228.363281 123.414062 228.511719 122.585938 C 228.65625 121.808594 228.800781 120.980469 228.949219 120.203125 C 229.09375 119.425781 229.140625 118.601562 229.238281 117.773438 C 229.289062 116.949219 229.335938 116.171875 229.382812 115.34375 C 229.382812 114.519531 229.382812 113.742188 229.382812 112.914062 C 229.335938 112.089844 229.289062 111.3125 229.238281 110.484375 C 229.191406 109.660156 229.042969 108.882812 228.949219 108.054688 C 228.800781 107.230469 228.65625 106.453125 228.511719 105.671875 C 228.316406 104.894531 228.121094 104.070312 227.925781 103.292969 C 227.730469 102.515625 227.488281 101.738281 227.199219 100.960938 C 226.953125 100.183594 226.664062 99.453125 226.324219 98.675781 C 226.03125 97.945312 225.691406 97.167969 225.351562 96.441406 C 225.011719 95.710938 224.621094 94.980469 224.234375 94.300781 C 223.84375 93.621094 223.40625 92.890625 222.96875 92.210938 C 222.53125 91.53125 222.09375 90.851562 221.609375 90.21875 C 221.121094 89.539062 220.636719 88.90625 220.101562 88.277344 C 219.566406 87.644531 219.035156 87.011719 218.5 86.429688 C 217.964844 85.84375 217.382812 85.261719 216.796875 84.679688 C 216.214844 84.097656 215.632812 83.5625 215 83.027344 C 214.367188 82.492188 213.734375 82.007812 213.105469 81.519531 C 212.472656 81.035156 211.792969 80.546875 211.113281 80.109375 C 210.429688 79.671875 209.75 79.234375 209.070312 78.800781 C 208.390625 78.410156 207.660156 77.972656 206.933594 77.632812 C 206.203125 77.242188 205.472656 76.902344 204.746094 76.5625 C 204.015625 76.222656 203.238281 75.929688 202.460938 75.640625 C 201.683594 75.347656 200.953125 75.105469 200.175781 74.863281 C 199.398438 74.621094 198.621094 74.425781 197.84375 74.230469 C 197.066406 74.035156 196.242188 73.890625 195.464844 73.746094 C 194.683594 73.597656 193.859375 73.5 193.03125 73.40625 C 192.207031 73.308594 191.429688 73.257812 190.601562 73.210938 C 189.777344 73.160156 189 73.113281 188.171875 73.160156 L 156 73.160156 L 156 40.988281 C 156 39.628906 155.902344 38.316406 155.757812 37.003906 C 155.613281 35.691406 155.371094 34.378906 155.125 33.066406 C 154.835938 31.753906 154.496094 30.492188 154.105469 29.179688 C 153.71875 27.917969 153.230469 26.652344 152.695312 25.4375 C 152.160156 24.222656 151.578125 23.007812 150.945312 21.839844 C 150.316406 20.675781 149.585938 19.507812 148.855469 18.441406 C 148.078125 17.320312 147.300781 16.253906 146.425781 15.230469 C 145.550781 14.210938 144.675781 13.238281 143.707031 12.265625 C 142.734375 11.34375 141.761719 10.421875 140.691406 9.59375 C 139.671875 8.769531 138.554688 7.941406 137.4375 7.214844 C 136.320312 6.484375 135.152344 5.804688 133.984375 5.171875 C 132.820312 4.539062 131.605469 4.003906 130.339844 3.472656 C 129.125 2.984375 127.863281 2.5 126.550781 2.160156 C 125.285156 1.769531 123.976562 1.429688 122.664062 1.1875 C 121.351562 0.945312 120.039062 0.75 118.675781 0.605469 C 117.511719 0.410156 116.199219 0.359375 114.839844 0.359375 C 113.476562 0.359375 112.164062 0.410156 110.851562 0.554688 C 109.539062 0.699219 108.179688 0.894531 106.867188 1.136719 C 105.554688 1.382812 104.242188 1.722656 102.980469 2.109375 C 101.714844 2.5 100.453125 2.9375 99.1875 3.421875 C 97.972656 3.910156 96.757812 4.492188 95.542969 5.125 C 94.378906 5.753906 93.210938 6.4375 92.09375 7.164062 C 90.976562 7.894531 89.90625 8.671875 88.839844 9.546875 C 87.816406 10.371094 86.796875 11.296875 85.824219 12.21875 C 84.851562 13.140625 83.976562 14.164062 83.101562 15.183594 C 82.230469 16.203125 81.449219 17.273438 80.671875 18.390625 C 79.894531 19.507812 79.214844 20.625 78.582031 21.792969 C 77.953125 22.960938 77.367188 24.175781 76.835938 25.390625 C 76.300781 26.605469 75.863281 27.867188 75.425781 29.132812 C 75.035156 30.394531 74.695312 31.707031 74.402344 33.019531 C 74.113281 34.332031 73.917969 35.644531 73.773438 36.957031 C 73.625 38.269531 73.53125 39.628906 73.53125 40.941406 L 73.53125 41.71875 C 78.4375 53.578125 81.207031 72.09375 77.464844 81.132812 Z M 77.464844 81.132812 " fill-opacity="1" fill-rule="nonzero"/></g><path fill="#7bc1b7" d="M 13.21875 59.992188 C 13.996094 65.921875 20.070312 76.5625 27.265625 84.679688 C 30.226562 88.03125 34.652344 92.308594 38.832031 93.863281 C 40.726562 94.496094 42.621094 94.933594 44.613281 95.128906 C 46.605469 95.324219 48.550781 95.273438 50.542969 94.980469 L 52.632812 99.746094 C 52.777344 100.085938 52.972656 100.425781 53.214844 100.714844 C 53.457031 101.007812 53.703125 101.300781 54.042969 101.542969 C 54.332031 101.785156 54.671875 101.980469 55.011719 102.125 C 55.355469 102.273438 55.742188 102.367188 56.132812 102.464844 L 56.324219 103.148438 L 58.511719 102.175781 C 58.707031 102.804688 58.949219 103.339844 59.191406 103.875 C 60.652344 107.179688 62.59375 110.242188 64.976562 112.914062 C 67.066406 115.199219 69.398438 117.238281 71.972656 118.941406 C 74.550781 120.640625 77.320312 122.003906 80.285156 123.023438 C 88.789062 126.085938 95.933594 125.066406 102.25 124.140625 C 113.039062 122.585938 120.183594 121.566406 130 142.269531 C 135.636719 154.222656 143.121094 165.0625 150.996094 172.886719 C 160.375 182.167969 170.289062 187.125 179.765625 187.367188 C 193.8125 187.660156 206.105469 177.988281 216.410156 158.644531 C 223.40625 145.476562 225.109375 136.632812 221.851562 130.847656 C 217.816406 123.65625 207.855469 123.121094 196.289062 122.441406 C 187.492188 121.953125 177.53125 121.371094 169.65625 117.675781 C 169.804688 117.386719 169.949219 117.09375 170.09375 116.851562 C 170.242188 116.558594 170.335938 116.269531 170.484375 115.976562 C 170.582031 115.683594 170.726562 115.394531 170.824219 115.101562 C 170.921875 114.808594 171.019531 114.519531 171.113281 114.179688 C 171.210938 113.886719 171.261719 113.546875 171.359375 113.253906 C 171.40625 112.964844 171.457031 112.625 171.503906 112.332031 C 171.550781 111.992188 171.601562 111.699219 171.601562 111.359375 C 171.648438 111.019531 171.648438 110.726562 171.648438 110.386719 C 171.648438 110.046875 171.648438 109.757812 171.648438 109.414062 C 171.648438 109.074219 171.601562 108.785156 171.601562 108.445312 C 171.550781 108.105469 171.503906 107.8125 171.457031 107.519531 C 171.40625 107.230469 171.359375 106.890625 171.261719 106.597656 C 171.210938 106.304688 171.113281 105.964844 171.019531 105.671875 C 170.921875 105.382812 170.824219 105.089844 170.726562 104.75 C 170.628906 104.457031 170.484375 104.167969 170.386719 103.875 C 170.242188 103.585938 170.144531 103.292969 169.996094 103 C 169.851562 102.710938 169.707031 102.417969 169.558594 102.175781 C 169.414062 101.882812 169.21875 101.640625 169.074219 101.347656 C 168.878906 101.105469 168.734375 100.8125 168.539062 100.570312 C 168.34375 100.328125 168.152344 100.085938 167.957031 99.84375 C 167.761719 99.597656 167.519531 99.355469 167.324219 99.160156 C 167.082031 98.917969 166.886719 98.722656 166.644531 98.480469 C 166.402344 98.285156 166.15625 98.042969 165.914062 97.847656 C 165.671875 97.65625 165.429688 97.460938 165.136719 97.265625 C 164.894531 97.070312 164.601562 96.925781 164.359375 96.730469 C 164.070312 96.585938 163.824219 96.390625 163.535156 96.246094 C 163.242188 96.101562 162.949219 95.953125 162.660156 95.808594 C 162.367188 95.664062 162.074219 95.566406 161.785156 95.417969 C 161.492188 95.324219 161.199219 95.175781 160.910156 95.078125 C 160.617188 94.980469 160.277344 94.886719 159.984375 94.835938 C 159.695312 94.738281 159.355469 94.691406 159.0625 94.640625 C 158.769531 94.59375 158.429688 94.542969 158.140625 94.496094 C 157.847656 94.449219 157.507812 94.398438 157.167969 94.398438 C 156.828125 94.398438 156.535156 94.351562 156.195312 94.351562 C 155.855469 94.351562 155.5625 94.351562 155.222656 94.351562 C 154.882812 94.351562 154.589844 94.398438 154.25 94.449219 C 153.910156 94.496094 153.621094 94.542969 153.328125 94.59375 C 153.035156 94.640625 152.695312 94.691406 152.40625 94.789062 C 152.113281 94.886719 151.773438 94.933594 151.480469 95.03125 C 151.191406 95.128906 150.898438 95.226562 150.558594 95.324219 C 150.265625 95.417969 149.976562 95.566406 149.683594 95.664062 C 149.390625 95.808594 149.101562 95.90625 148.808594 96.050781 C 148.515625 96.195312 148.226562 96.34375 147.980469 96.539062 C 147.738281 96.730469 147.449219 96.878906 147.15625 97.070312 C 146.914062 97.265625 146.621094 97.460938 146.378906 97.65625 C 146.136719 97.847656 145.894531 98.042969 145.648438 98.238281 C 145.40625 98.433594 145.164062 98.675781 144.96875 98.871094 C 144.726562 99.113281 144.53125 99.308594 144.335938 99.550781 C 144.144531 99.792969 143.898438 100.035156 143.707031 100.28125 C 143.511719 100.523438 143.316406 100.765625 143.121094 101.058594 C 142.929688 101.300781 142.78125 101.589844 142.589844 101.835938 C 142.441406 102.125 142.246094 102.367188 142.101562 102.660156 C 141.957031 102.953125 141.808594 103.242188 141.664062 103.535156 C 141.519531 103.828125 141.421875 104.117188 141.277344 104.410156 C 141.179688 104.703125 141.082031 104.992188 140.984375 105.332031 C 140.886719 105.625 140.789062 105.917969 140.742188 106.257812 C 140.644531 106.546875 140.59375 106.890625 140.546875 107.179688 C 140.5 107.472656 140.449219 107.8125 140.402344 108.105469 C 140.351562 108.445312 140.351562 108.734375 140.304688 109.074219 C 140.304688 109.414062 140.253906 109.707031 140.253906 110.046875 C 140.253906 110.386719 140.253906 110.679688 140.304688 111.019531 C 140.304688 111.359375 140.351562 111.652344 140.402344 111.992188 C 140.449219 112.332031 140.5 112.625 140.546875 112.914062 C 140.59375 113.207031 140.691406 113.546875 140.742188 113.839844 C 140.789062 114.128906 140.886719 114.46875 140.984375 114.761719 C 141.082031 115.054688 141.179688 115.34375 141.277344 115.683594 C 141.371094 115.976562 141.519531 116.269531 141.664062 116.558594 C 141.808594 116.851562 141.957031 117.144531 142.101562 117.433594 C 142.246094 117.726562 142.394531 117.96875 142.589844 118.261719 C 142.734375 118.550781 142.929688 118.796875 143.121094 119.039062 C 143.316406 119.28125 143.511719 119.574219 143.707031 119.816406 C 143.898438 120.058594 144.09375 120.300781 144.335938 120.542969 C 144.53125 120.789062 144.773438 121.03125 145.019531 121.226562 C 145.261719 121.46875 145.457031 121.664062 145.699219 121.855469 C 145.941406 122.050781 146.183594 122.246094 146.425781 122.441406 C 146.671875 122.632812 146.914062 122.828125 147.203125 123.023438 C 147.449219 123.21875 147.738281 123.363281 148.03125 123.558594 C 148.324219 123.703125 148.566406 123.898438 148.855469 124.042969 C 149.148438 124.191406 149.441406 124.335938 149.730469 124.433594 C 150.023438 124.578125 150.316406 124.675781 150.605469 124.773438 C 150.898438 124.871094 151.191406 124.96875 151.53125 125.066406 C 151.820312 125.160156 152.160156 125.257812 152.453125 125.308594 C 152.746094 125.40625 153.085938 125.453125 153.375 125.5 C 153.667969 125.550781 154.007812 125.597656 154.300781 125.648438 C 154.640625 125.695312 154.933594 125.695312 155.273438 125.746094 C 155.613281 125.746094 155.902344 125.746094 156.242188 125.746094 C 156.585938 125.746094 156.875 125.746094 157.214844 125.695312 C 157.554688 125.695312 157.847656 125.648438 158.1875 125.597656 C 158.480469 125.550781 158.820312 125.5 159.113281 125.453125 C 159.402344 125.40625 159.742188 125.308594 160.035156 125.257812 C 160.328125 125.160156 160.667969 125.113281 160.957031 125.015625 C 161.25 124.917969 161.542969 124.820312 161.832031 124.675781 C 162.125 124.578125 162.417969 124.433594 162.707031 124.285156 C 163 124.140625 163.289062 123.996094 163.582031 123.847656 C 163.875 123.703125 164.117188 123.558594 164.410156 123.363281 C 164.699219 123.21875 164.941406 123.023438 165.1875 122.828125 C 174.710938 127.882812 186.035156 128.515625 196.09375 129.097656 C 205.28125 129.632812 213.929688 130.117188 216.164062 134.054688 C 217.527344 136.4375 217.671875 142.074219 210.625 155.390625 C 201.636719 172.351562 191.332031 180.855469 180.105469 180.5625 C 162.027344 180.175781 145.210938 158.113281 136.320312 139.351562 C 124.363281 114.179688 112.75 115.832031 101.523438 117.433594 C 95.738281 118.261719 89.761719 119.136719 82.8125 116.65625 C 71.878906 112.71875 67.015625 105.285156 64.878906 99.40625 L 65.363281 99.210938 C 65.65625 99.113281 65.898438 98.917969 66.140625 98.773438 C 66.386719 98.628906 66.628906 98.382812 66.824219 98.191406 C 67.015625 97.996094 67.210938 97.753906 67.40625 97.460938 C 67.550781 97.21875 67.699219 96.925781 67.792969 96.632812 C 67.890625 96.34375 67.988281 96.050781 68.039062 95.757812 C 68.085938 95.46875 68.136719 95.175781 68.136719 94.835938 C 68.136719 94.542969 68.085938 94.253906 68.039062 93.960938 C 67.988281 93.671875 67.890625 93.378906 67.746094 93.085938 L 65.65625 88.324219 C 67.210938 87.0625 68.574219 85.652344 69.789062 84.097656 C 71.003906 82.539062 72.023438 80.792969 72.800781 78.992188 C 76.785156 69.371094 71.632812 44.78125 65.363281 37.199219 C 62.496094 33.796875 58.171875 31.851562 52.730469 31.511719 C 52.390625 30.878906 51.953125 30.296875 51.417969 29.761719 C 50.882812 29.226562 50.347656 28.792969 49.714844 28.402344 C 49.085938 28.011719 48.402344 27.722656 47.675781 27.527344 C 46.945312 27.332031 46.21875 27.234375 45.488281 27.234375 C 45.148438 27.234375 44.808594 27.234375 44.46875 27.285156 C 44.128906 27.332031 43.789062 27.382812 43.496094 27.480469 C 43.15625 27.574219 42.863281 27.671875 42.523438 27.769531 C 42.230469 27.867188 41.890625 28.011719 41.601562 28.207031 C 41.308594 28.355469 41.015625 28.546875 40.726562 28.742188 C 40.433594 28.9375 40.191406 29.132812 39.949219 29.375 C 39.703125 29.617188 39.460938 29.859375 39.265625 30.101562 C 39.074219 30.347656 38.832031 30.636719 38.683594 30.929688 C 38.488281 31.222656 38.34375 31.511719 38.199219 31.804688 C 38.050781 32.097656 37.90625 32.4375 37.808594 32.726562 C 37.710938 33.066406 37.613281 33.359375 37.519531 33.699219 C 37.46875 34.039062 37.421875 34.378906 37.371094 34.71875 C 37.324219 35.058594 37.324219 35.402344 37.371094 35.742188 C 37.371094 36.082031 37.421875 36.421875 37.46875 36.761719 C 37.519531 37.101562 37.613281 37.441406 37.710938 37.734375 C 37.808594 38.074219 37.90625 38.363281 38.050781 38.65625 C 38.394531 39.386719 38.78125 40.066406 39.316406 40.699219 C 39.851562 41.328125 40.433594 41.816406 41.113281 42.253906 C 41.792969 42.691406 42.523438 43.03125 43.300781 43.226562 C 44.078125 43.417969 44.855469 43.566406 45.683594 43.515625 C 46.507812 43.515625 47.285156 43.371094 48.0625 43.128906 C 48.839844 42.882812 49.570312 42.496094 50.203125 42.058594 C 50.882812 41.574219 51.464844 41.039062 51.953125 40.40625 C 52.4375 39.773438 52.828125 39.046875 53.117188 38.316406 C 56.179688 38.609375 58.464844 39.628906 59.96875 41.328125 L 60.117188 41.523438 C 62.351562 44.195312 64.78125 51.097656 66.238281 58.628906 C 67.648438 66.164062 67.792969 73.40625 66.53125 76.417969 C 64.246094 81.957031 57.976562 85.652344 56.035156 86.71875 C 53.894531 87.449219 46.945312 89.539062 41.355469 87.449219 C 38.296875 86.332031 33.144531 81.375 28.527344 75.105469 C 23.910156 68.835938 20.558594 62.46875 20.121094 58.96875 C 19.828125 56.636719 20.605469 54.207031 22.550781 51.632812 C 22.839844 51.777344 23.179688 51.875 23.523438 51.925781 C 23.863281 52.019531 24.152344 52.070312 24.492188 52.117188 C 24.832031 52.167969 25.175781 52.167969 25.515625 52.214844 C 25.855469 52.214844 26.195312 52.214844 26.535156 52.167969 C 26.875 52.117188 27.214844 52.070312 27.507812 51.972656 C 27.847656 51.875 28.136719 51.777344 28.480469 51.679688 C 28.769531 51.582031 29.109375 51.4375 29.402344 51.292969 C 29.695312 51.144531 29.984375 50.953125 30.277344 50.757812 C 30.570312 50.5625 30.8125 50.367188 31.054688 50.125 C 31.296875 49.882812 31.539062 49.6875 31.785156 49.398438 C 32.027344 49.152344 32.222656 48.863281 32.414062 48.621094 C 32.609375 48.328125 32.753906 48.035156 32.949219 47.746094 C 33.09375 47.453125 33.242188 47.160156 33.339844 46.820312 C 33.4375 46.53125 33.53125 46.1875 33.628906 45.847656 C 33.726562 45.507812 33.777344 45.21875 33.777344 44.878906 C 33.824219 44.535156 33.824219 44.195312 33.824219 43.855469 C 33.824219 43.515625 33.777344 43.175781 33.726562 42.835938 C 33.679688 42.496094 33.628906 42.15625 33.53125 41.863281 C 33.4375 41.523438 33.339844 41.230469 33.191406 40.890625 C 33.046875 40.601562 32.902344 40.261719 32.753906 39.96875 C 32.609375 39.675781 32.414062 39.386719 32.222656 39.140625 C 32.027344 38.851562 31.832031 38.609375 31.589844 38.363281 C 31.347656 38.121094 31.101562 37.878906 30.859375 37.683594 C 30.617188 37.488281 30.324219 37.296875 30.035156 37.101562 C 29.742188 36.90625 29.449219 36.761719 29.160156 36.617188 C 28.867188 36.46875 28.527344 36.324219 28.234375 36.226562 C 27.894531 36.128906 27.605469 36.03125 27.265625 35.984375 C 26.921875 35.933594 26.582031 35.886719 26.292969 35.835938 C 25.953125 35.789062 25.613281 35.789062 25.269531 35.835938 C 24.929688 35.835938 24.589844 35.886719 24.25 35.933594 C 23.910156 35.984375 23.570312 36.082031 23.277344 36.179688 C 22.9375 36.273438 22.648438 36.371094 22.355469 36.519531 C 21.871094 36.710938 21.433594 36.957031 20.996094 37.246094 C 20.558594 37.539062 20.167969 37.878906 19.828125 38.21875 C 19.4375 38.609375 19.148438 38.996094 18.855469 39.386719 C 18.566406 39.773438 18.320312 40.261719 18.128906 40.746094 C 17.933594 41.230469 17.738281 41.71875 17.640625 42.203125 C 17.542969 42.691406 17.445312 43.226562 17.445312 43.710938 C 17.445312 44.246094 17.445312 44.730469 17.542969 45.265625 C 17.640625 45.75 17.738281 46.285156 17.933594 46.773438 C 14.140625 51.097656 12.636719 55.617188 13.21875 59.992188 Z M 13.21875 59.992188 " fill-opacity="1" fill-rule="nonzero"/></svg>